<svg width="47" height="84" viewBox="0 0 47 84" fill="none" xmlns="http://www.w3.org/2000/svg">
<path d="M0 42.1713C0 30.6632 0 19.1552 0 7.64714C0 3.49003 2.53409 0.960007 6.69982 0.960007C17.9007 0.960007 29.1016 0.960007 40.3024 0.960007C44.4704 0.960007 46.9977 3.48556 47 7.64938C47 30.6945 47 53.7397 47 76.7826C47 80.886 44.4547 83.4272 40.3429 83.4272C29.1151 83.4272 17.8849 83.4272 6.65706 83.4272C2.5521 83.4272 0.00225053 80.8793 0.00225053 76.7781C0.00225053 65.241 0.00225053 53.7061 0.00225053 42.169L0 42.1713ZM45.0871 67.4648V12.6938H44.0248C34.7031 12.6938 25.3837 12.6938 16.062 12.6938C15.7807 12.6938 15.4274 12.7899 15.2361 12.6603C14.8827 12.4189 14.4551 12.0814 14.3674 11.7104C14.2391 11.1583 14.6667 10.7851 15.2428 10.7002C15.5174 10.6599 15.8032 10.6845 16.0845 10.6845C25.4332 10.6845 34.7819 10.6845 44.1328 10.6845H45.1501C45.1501 9.5916 45.1501 8.61714 45.1501 7.64267C45.1501 4.65224 43.4644 2.97375 40.4622 2.97375C29.2051 2.97375 17.9457 2.97375 6.68857 2.97375C6.49277 2.97375 6.29472 2.96928 6.09893 2.97822C4.19498 3.04974 2.46883 4.31475 2.18976 6.17651C1.97146 7.63597 2.147 9.1513 2.147 10.6845C4.08246 10.6845 6.01566 10.6935 7.95111 10.68C8.65553 10.6756 9.18665 10.8834 9.25417 11.6612C9.31043 12.3094 8.80406 12.6848 7.92411 12.6938C7.05315 12.7005 6.18445 12.6938 5.31349 12.6938C4.23099 12.6938 3.14849 12.6938 2.06823 12.6938V67.4671H45.0938L45.0871 67.4648ZM45.1321 69.5769H2.02097C2.02097 71.9795 2.02097 74.3241 2.02097 76.6663C2.02097 79.7663 3.67961 81.418 6.79434 81.418C17.993 81.418 29.1916 81.418 40.3902 81.418C40.6715 81.418 40.9528 81.4247 41.2319 81.4068C43.2664 81.266 45.042 79.6501 45.1118 77.6587C45.2041 74.9856 45.1343 72.3058 45.1343 69.5769H45.1321Z" fill="#FD6F00"/>
<path d="M23.6106 16.0463C28.6631 16.0463 33.7155 16.0463 38.7679 16.0463C39.9697 16.0463 40.26 16.3324 40.26 17.5192C40.26 26.7095 40.26 35.8976 40.26 45.088C40.26 46.2658 39.9652 46.5519 38.7589 46.5519C28.6541 46.5519 18.547 46.5519 8.44209 46.5519C7.18629 46.5519 6.90723 46.277 6.90723 45.0366C6.90723 35.8753 6.90723 26.714 6.90723 17.5527C6.90723 16.3167 7.18404 16.0463 8.45109 16.0463C13.5035 16.0463 18.556 16.0463 23.6084 16.0463H23.6106ZM22.0915 31.3002C17.6895 27.3063 13.3865 23.3995 9.00022 19.4212V43.1837C13.4045 39.1853 17.712 35.2763 22.0915 31.3002ZM38.2143 19.3876C33.783 23.4084 29.4598 27.3308 25.0847 31.3002C29.4778 35.2852 33.792 39.201 38.2143 43.2128V19.3854V19.3876ZM10.5666 18.0958C15.0046 22.121 19.2874 26.0055 23.5926 29.9123C27.9474 25.9586 32.2189 22.0808 36.6052 18.0958H10.5666ZM23.5881 32.6859C19.2244 36.6486 14.9551 40.5241 10.5801 44.4979H36.6029C32.2031 40.504 27.9271 36.624 23.5881 32.6859Z" fill="black"/>
<path d="M23.5001 57.6174C18.5872 57.6174 13.6743 57.6174 8.76138 57.6174C8.48232 57.6174 8.12223 57.7024 7.93994 57.5638C7.61586 57.3202 7.19727 56.938 7.19727 56.6117C7.19727 56.2876 7.61811 55.9032 7.93994 55.6596C8.12448 55.521 8.48232 55.6082 8.76363 55.6082C18.6457 55.6082 28.5278 55.6082 38.4098 55.6082C38.6349 55.6082 38.8622 55.5925 39.0827 55.6193C39.6679 55.6886 40.019 56.0373 40.019 56.6139C40.019 57.1883 39.6656 57.5392 39.0827 57.6085C38.8329 57.6375 38.5786 57.6197 38.3243 57.6197C33.3821 57.6197 28.4422 57.6197 23.5001 57.6197V57.6174Z" fill="#FD6F00"/>
<path d="M23.5311 62.6461C18.6182 62.6461 13.7053 62.6461 8.79241 62.6461C8.51109 62.6461 8.15776 62.7355 7.96872 62.6014C7.63789 62.3668 7.17653 61.9734 7.19904 61.6784C7.22379 61.3208 7.65814 60.9498 7.99122 60.6771C8.14426 60.5519 8.47958 60.6391 8.73164 60.6391C18.643 60.6391 28.552 60.6391 38.4634 60.6391C38.6884 60.6391 38.981 60.5586 39.1228 60.6682C39.4648 60.9341 39.9104 61.2537 39.9915 61.6203C40.1107 62.1611 39.6966 62.55 39.1138 62.6327C38.8662 62.6685 38.6096 62.6484 38.3576 62.6484C33.4154 62.6484 28.4755 62.6484 23.5334 62.6484L23.5311 62.6461Z" fill="#FD6F00"/>
<path d="M15.8348 52.4211C13.3953 52.4211 10.9579 52.4233 8.51837 52.4211C7.62941 52.4211 7.14555 52.0657 7.13879 51.4287C7.12979 50.7873 7.61591 50.414 8.49361 50.414C13.3998 50.4096 18.3059 50.4118 23.2121 50.414C24.1303 50.414 24.5781 50.7471 24.5871 51.4041C24.5961 52.0523 24.1213 52.4188 23.2368 52.4211C20.7702 52.4255 18.3037 52.4211 15.8348 52.4211Z" fill="#FD6F00"/>
<path d="M23.5875 78.7024C21.5351 78.7203 19.7616 76.9703 19.7549 74.9208C19.7504 72.8489 21.4428 71.1324 23.5335 71.0877C25.6243 71.0453 27.4157 72.8109 27.4044 74.9073C27.3954 76.9725 25.6715 78.6845 23.5853 78.7002L23.5875 78.7024ZM25.388 74.9051C25.397 73.9575 24.5935 73.1328 23.6371 73.1037C22.6513 73.0746 21.7916 73.8994 21.7826 74.885C21.7736 75.8259 22.5793 76.6574 23.5335 76.6909C24.5035 76.7244 25.3812 75.8818 25.3902 74.9051H25.388Z" fill="black"/>
</svg>
