<svg width="82" height="71" viewBox="0 0 82 71" fill="none" xmlns="http://www.w3.org/2000/svg">
<path d="M82.0008 7.78166V64.1384C81.958 64.2402 81.8939 64.3353 81.8725 64.4416C81.0487 68.493 78.2203 70.9328 74.3028 70.9577C72.8885 70.9668 71.4743 70.9577 70.0579 70.9577C49.3194 70.9577 28.5808 70.96 7.84011 70.9577C3.26792 70.9577 0.00939751 67.6261 0.00511843 62.9071C-0.00343973 44.9386 -0.00343973 26.9746 0.0222347 9.01064C0.0222347 8.094 0.172003 7.14114 0.443724 6.27202C1.48782 2.93136 4.27564 0.960007 7.84439 0.960007C29.9437 0.960007 52.0451 0.960007 74.1444 0.960007C74.3584 0.960007 74.5724 0.960007 74.7842 0.96906C77.7346 1.12976 79.8891 2.62355 81.2178 5.39612C81.5729 6.13849 81.7441 6.98044 81.9987 7.77713L82.0008 7.78166ZM14.6417 67.522C14.6417 64.1519 14.6417 60.8724 14.6417 57.5928C14.6417 55.0194 14.6246 52.4438 14.6481 49.8704C14.6717 47.3558 16.1629 45.8009 18.5164 45.7941C20.2516 45.7896 21.9867 45.7919 23.7198 45.7941C26.2894 45.7964 27.725 47.3174 27.7271 50.0514C27.7314 55.54 27.7271 61.0263 27.7271 66.5148C27.7271 66.843 27.7271 67.1712 27.7271 67.5175H32.5218C32.5218 67.1667 32.5218 66.8634 32.5218 66.5601C32.5218 63.6744 32.5176 60.7886 32.5261 57.9052C32.5261 57.4842 32.5539 57.0564 32.6181 56.6422C32.8385 55.2096 33.6815 54.2273 34.8047 53.4555C33.4333 49.9609 32.0832 46.5207 30.7332 43.0827C29.4987 39.9389 29.9287 37.8725 32.2351 35.5232C35.1107 32.5944 37.8172 29.5186 39.6016 25.6687C39.8819 25.0644 40.3611 24.7407 41.0158 24.7407C41.7026 24.7407 42.1583 25.0915 42.4878 25.714C43.0377 26.746 43.4998 27.8664 44.208 28.7604C46.1421 31.2025 48.1383 33.5971 50.2009 35.9193C51.8975 37.8295 52.4217 40.0974 51.4931 42.5395C51.016 43.7956 50.5154 45.045 50.0276 46.2966C49.0969 48.6935 48.1683 51.0903 47.2269 53.5098C48.9728 54.6098 49.5333 56.2529 49.4927 58.2764C49.4349 61.0467 49.4777 63.8192 49.4777 66.5918V67.4971H53.9643C53.9643 67.1214 53.9643 66.8136 53.9643 66.5035C53.9643 62.4295 53.9215 58.3556 53.9985 54.2839C54.0157 53.4374 54.281 52.4234 54.7816 51.801C55.3892 51.045 55.5198 50.3253 55.4919 49.4358C55.4384 47.6501 56.1766 46.3532 57.6743 45.5135C57.8882 45.3935 58.0958 45.0314 58.1065 44.7734C58.1535 43.644 58.1172 42.5123 58.13 41.3807C58.1428 40.2581 58.759 39.5383 59.6919 39.5202C60.6525 39.5021 61.3093 40.2445 61.3265 41.401C61.3436 42.5033 61.3521 43.6078 61.32 44.71C61.3072 45.1695 61.4377 45.4071 61.8442 45.6018C62.8734 46.0952 63.5773 46.9552 63.8126 48.1231C63.9602 48.8587 63.8854 49.6418 63.9538 50.4C63.9795 50.6829 64.0544 51.0383 64.2341 51.2125C65.1734 52.1224 65.5071 53.2427 65.5007 54.5577C65.4793 58.5751 65.4943 62.5902 65.4943 66.6076C65.4943 66.9087 65.4943 67.2074 65.4943 67.5673C68.4533 67.5673 71.3031 67.5718 74.1551 67.5673C77.0628 67.5628 78.7958 65.7363 78.7958 62.6717C78.7979 49.9994 78.7958 37.3271 78.7958 24.6525C78.7958 24.3537 78.7958 24.0572 78.7958 23.7607H3.20587C3.20587 24.1047 3.20587 24.408 3.20587 24.7113C3.20587 37.3271 3.20587 49.9428 3.20587 62.5608C3.20587 62.8437 3.19945 63.1267 3.21871 63.4096C3.3535 65.4556 4.89183 67.384 6.78532 67.4881C9.36132 67.6307 11.948 67.5243 14.6417 67.5243V67.522ZM3.21657 20.2548H78.7851C78.7851 16.2872 78.7851 12.383 78.783 8.48102C78.783 8.3407 78.7551 8.20037 78.7295 8.06231C78.2973 5.72882 76.6113 4.35499 74.1509 4.35499C52.0494 4.35499 29.9501 4.35499 7.84867 4.35499C7.63472 4.35499 7.42076 4.35499 7.20895 4.36631C5.11862 4.46815 3.28289 6.26071 3.23796 8.48329C3.16094 12.383 3.21657 16.2872 3.21657 20.2571V20.2548ZM39.4005 52.9078C39.4005 50.1669 39.394 47.4554 39.4047 44.7462C39.409 43.5806 40.0552 42.8586 41.0329 42.8767C41.9743 42.8926 42.5905 43.601 42.5991 44.7281C42.6119 46.7628 42.6033 48.7998 42.6033 50.8346C42.6033 51.5339 42.6033 52.2355 42.6033 53.0549C43.2024 52.8557 43.8357 53.3695 44.1759 52.48C45.6158 48.7138 47.0921 44.9612 48.547 41.2019C48.9685 40.1132 48.7545 39.1626 47.9501 38.3501C47.274 37.6666 46.5743 37.0057 45.9581 36.2656C44.2701 34.2376 42.6226 32.1735 40.9388 30.1003C40.9302 30.1116 40.834 30.2021 40.7633 30.313C38.8977 33.2304 36.6469 35.7903 34.2335 38.2007C33.1744 39.2577 33.0118 40.0476 33.5659 41.4621C34.9459 44.9816 36.3645 48.483 37.6888 52.0251C38.0312 52.9394 38.4826 53.2042 39.4026 52.9123L39.4005 52.9078ZM46.2791 67.5379V66.705C46.2791 63.7943 46.2791 60.886 46.2791 57.9753C46.2791 56.7101 46.0052 56.4068 44.8327 56.4046C42.2739 56.3978 39.715 56.3978 37.1561 56.4046C36.0157 56.4068 35.7269 56.7147 35.7247 57.9052C35.7205 60.8724 35.7226 63.8373 35.7247 66.8045C35.7247 67.0467 35.7547 67.2866 35.7718 67.5401H46.2769L46.2791 67.5379ZM24.5242 67.5265C24.5242 66.5284 24.5242 65.6276 24.5242 64.7246C24.5242 59.8629 24.5242 54.9991 24.5242 50.1375C24.5242 49.6373 24.5649 49.1665 23.8588 49.1755C22.0723 49.2004 20.2837 49.1642 18.4993 49.2095C18.2789 49.214 17.9109 49.5331 17.881 49.7459C17.7975 50.3728 17.851 51.0201 17.851 51.715C18.6084 51.715 19.246 51.7059 19.8836 51.715C20.994 51.7331 21.7129 52.3872 21.7257 53.3763C21.7407 54.397 20.9983 55.0851 19.8493 55.1032C19.2139 55.1122 18.5785 55.1032 17.9131 55.1032V57.1968C18.6747 57.1968 19.3658 57.1719 20.0569 57.2035C21.0389 57.2465 21.7172 57.9527 21.7257 58.8897C21.7343 59.8562 21.0261 60.56 19.9991 60.5849C19.3145 60.6008 18.6277 60.5872 17.9109 60.5872V62.7193C18.6148 62.7193 19.2503 62.7079 19.8879 62.7215C21.009 62.7464 21.7172 63.396 21.7279 64.3873C21.7407 65.4081 21.0068 66.0848 19.8472 66.1074C19.2139 66.1188 18.5785 66.1074 17.9045 66.1074V67.5175H24.5242V67.5265ZM62.2914 67.522C62.2914 63.0633 62.2871 58.7109 62.2978 54.3585C62.2978 53.838 62.0432 53.761 61.6388 53.7633C60.4107 53.7769 59.1826 53.8063 57.9567 53.752C57.2956 53.7226 57.1522 53.9828 57.1565 54.6324C57.18 58.7041 57.1672 62.7781 57.1715 66.8498C57.1715 67.0671 57.2036 67.2844 57.2228 67.522H62.2914ZM60.8258 50.3321C60.7124 49.7436 60.7659 48.9537 60.4749 48.7659C60.0834 48.5124 59.3046 48.5305 58.9216 48.7998C58.6413 48.9967 58.7312 49.7844 58.652 50.3321H60.8258Z" fill="#FD6F00"/>
</svg>
