<svg width="70" height="71" viewBox="0 0 70 71" fill="none" xmlns="http://www.w3.org/2000/svg">
<path d="M58.1055 0.960007C58.8452 1.36287 59.0808 1.97902 59.0772 2.81938C59.0498 8.37928 59.0626 13.9374 59.0626 19.4972C59.0626 19.6795 59.0717 19.8637 59.0534 20.0441C58.984 20.7897 58.4233 21.3238 57.7091 21.3311C56.9676 21.3384 56.3722 20.7879 56.3374 20.0058C56.3064 19.2785 56.3265 18.5475 56.3265 17.8183C56.3265 15.609 56.3265 13.3996 56.3265 11.1337H13.7219V14.8962H14.5347C24.469 14.8962 34.4014 14.8962 44.3356 14.8962C45.8005 14.8962 46.2114 15.3027 46.2114 16.7538C46.2114 22.9972 46.2114 29.2389 46.2114 35.4824C46.2114 36.8915 45.7804 37.329 44.3849 37.329C34.4507 37.329 24.5183 37.329 14.584 37.329C14.3137 37.329 14.0416 37.329 13.7219 37.329V68.1855H56.2936V63.6027H55.4078C45.5192 63.6027 35.6324 63.6027 25.7438 63.6027C24.153 63.6027 23.7913 63.2345 23.7913 61.6194C23.7913 55.3996 23.7913 49.1798 23.7913 42.96C23.7913 41.6202 24.2498 41.1681 25.6087 41.1681C35.5429 41.1681 45.4753 41.1681 55.4096 41.1681H56.3301C56.3301 40.9001 56.3301 40.6595 56.3301 40.4207C56.3301 37.7775 56.3265 35.1342 56.332 32.4928C56.332 31.6762 56.6808 31.1621 57.3347 30.9689C58.237 30.7009 59.0552 31.3827 59.0607 32.44C59.0717 35.0832 59.0644 37.7264 59.0644 40.3678C59.0644 40.6121 59.0644 40.8564 59.0644 41.1699C59.7603 41.1699 60.3922 41.1699 61.0242 41.1699C63.3932 41.1699 65.7639 41.1954 68.1329 41.1553C68.9676 41.1407 69.5886 41.3887 70.0032 42.116V62.6238C69.6342 63.3967 69.0132 63.6282 68.1767 63.6191C65.4059 63.5845 62.6352 63.6064 59.8644 63.6064C59.6215 63.6064 59.3785 63.6064 59.0644 63.6064C59.0644 65.4913 59.0315 67.3032 59.079 69.1116C59.1009 69.9519 58.8416 70.5608 58.1073 70.9637H11.8936C11.1539 70.5608 10.9201 69.9465 10.9219 69.1061C10.9438 58.7884 10.9365 48.4707 10.9365 38.153V37.3308C7.78767 37.3308 4.73744 37.3327 1.68904 37.3308C0.479909 37.3308 0.00136986 36.8441 0.00136986 35.6228C-0.000456621 29.2681 -0.000456621 22.9134 0.00136986 16.5587C0.00136986 15.3847 0.485388 14.9035 1.66347 14.9017C4.21507 14.898 6.76484 14.9017 9.31644 14.9017C9.83516 14.9017 10.3521 14.9017 10.9365 14.9017V14.0996C10.9365 10.3407 10.9566 6.5837 10.9219 2.82485C10.9146 1.98449 11.1521 1.36834 11.8936 0.967298H58.1055V0.960007ZM2.76484 34.5454H43.4242V17.667H2.76484V34.5454ZM26.5548 60.8173H67.2105V43.9389H26.5548V60.8173ZM45.4936 3.73266H13.7183V8.2936H45.4936V3.73266ZM56.2991 3.7436H48.3174V8.30818H56.2991V3.7436Z" fill="#FD6F00"/>
</svg>
